HIERARCHY
ROOT Hips
{
    OFFSET 0.000000 0.000000 0.000000
    CHANNELS 6 Xposition Yposition Zposition Zrotation Yrotation Xrotation
    JOINT Chest
    {
        OFFSET 0.000000 1.634758 -0.000000
        CHANNELS 3 Zrotation Yrotation Xrotation
        JOINT Chest2
        {
            OFFSET 0.000000 2.197341 0.000000
            CHANNELS 3 Zrotation Yrotation Xrotation
            JOINT Neck
            {
                OFFSET 0.000000 0.961544 0.000000
                CHANNELS 3 Zrotation Yrotation Xrotation
                JOINT Head
                {
                    OFFSET 0.000000 0.632542 -0.032565
                    CHANNELS 3 Zrotation Yrotation Xrotation
                    End Site
                    {
                        OFFSET -0.000001 0.439502 2.922845
                    }
                }
            }
            JOINT LeftCollar
            {
                OFFSET 0.167536 0.778237 -0.168280
                CHANNELS 3 Zrotation Yrotation Xrotation
                JOINT LeftShoulder
                {
                    OFFSET 0.831514 -0.002900 0.006458
                    CHANNELS 3 Zrotation Yrotation Xrotation
                    JOINT LeftElbow
                    {
                        OFFSET 2.272872 -0.026639 0.059314
                        CHANNELS 3 Zrotation Yrotation Xrotation
                        JOINT LeftWrist
                        {
                            OFFSET 2.081982 -0.024402 0.054333
                            CHANNELS 3 Zrotation Yrotation Xrotation
                            JOINT LeftHandThumb1
                            {
                                OFFSET 0.218903 -0.128645 0.283837
                                CHANNELS 3 Zrotation Yrotation Xrotation
                                JOINT LeftHandThumb2
                                {
                                    OFFSET 0.137157 -0.025101 0.077902
                                    CHANNELS 3 Zrotation Yrotation Xrotation
                                    JOINT LeftHandThumb3
                                    {
                                        OFFSET 0.177399 -0.029623 0.034516
                                        CHANNELS 3 Zrotation Yrotation Xrotation
                                        End Site
                                        {
                                            OFFSET 0.259773 -0.011322 -0.065007
                                        }
                                    }
                                }
                            }
                            JOINT LeftHandFore1
                            {
                                OFFSET 0.767340 -0.016076 0.196678
                                CHANNELS 3 Zrotation Yrotation Xrotation
                                JOINT LeftHandFore2
                                {
                                    OFFSET 0.214794 0.027771 0.009357
                                    CHANNELS 3 Zrotation Yrotation Xrotation
                                    JOINT LeftHandFore3
                                    {
                                        OFFSET 0.126907 -0.024768 0.006637
                                        CHANNELS 3 Zrotation Yrotation Xrotation
                                        End Site
                                        {
                                            OFFSET 0.189025 -0.040020 0.005898
                                        }
                                    }
                                }
                            }
                            JOINT LeftHandMiddle1
                            {
                                OFFSET 0.709887 -0.008320 0.018526
                                CHANNELS 3 Zrotation Yrotation Xrotation
                                JOINT LeftHandMiddle2
                                {
                                    OFFSET 0.236261 -0.064713 0.007515
                                    CHANNELS 3 Zrotation Yrotation Xrotation
                                    JOINT LeftHandMiddle3
                                    {
                                        OFFSET 0.103402 -0.103219 0.006090
                                        CHANNELS 3 Zrotation Yrotation Xrotation
                                        End Site
                                        {
                                            OFFSET 0.130230 -0.196352 0.010783
                                        }
                                    }
                                }
                            }
                            JOINT LeftHandRing1
                            {
                                OFFSET 0.743817 -0.005823 -0.153668
                                CHANNELS 3 Zrotation Yrotation Xrotation
                                JOINT LeftHandRing2
                                {
                                    OFFSET 0.338994 -0.098659 -0.009100
                                    CHANNELS 3 Zrotation Yrotation Xrotation
                                    JOINT LeftHandRing3
                                    {
                                        OFFSET -0.019387 -0.134885 0.005976
                                        CHANNELS 3 Zrotation Yrotation Xrotation
                                        End Site
                                        {
                                            OFFSET -0.088531 -0.080977 0.004974
                                        }
                                    }
                                }
                            }
                            JOINT LeftHandLittle1
                            {
                                OFFSET 0.689408 -0.053302 -0.308304
                                CHANNELS 3 Zrotation Yrotation Xrotation
                                JOINT LeftHandLittle2
                                {
                                    OFFSET 0.193251 -0.018757 -0.018874
                                    CHANNELS 3 Zrotation Yrotation Xrotation
                                    JOINT LeftHandLittle3
                                    {
                                        OFFSET 0.000687 -0.119815 -0.011842
                                        CHANNELS 3 Zrotation Yrotation Xrotation
                                        End Site
                                        {
                                            OFFSET -0.185788 0.041814 -0.004795
                                        }
                                    }
                                }
                            }
                        }
                    }
                }
            }
            JOINT RightCollar
            {
                OFFSET -0.167536 0.778237 -0.168280
                CHANNELS 3 Zrotation Yrotation Xrotation
                JOINT RightShoulder
                {
                    OFFSET -0.831514 -0.002900 0.006457
                    CHANNELS 3 Zrotation Yrotation Xrotation
                    JOINT RightElbow
                    {
                        OFFSET -2.272872 -0.026639 0.059313
                        CHANNELS 3 Zrotation Yrotation Xrotation
                        JOINT RightWrist
                        {
                            OFFSET -2.081982 -0.024402 0.054331
                            CHANNELS 3 Zrotation Yrotation Xrotation
                            JOINT RightHandThumb1
                            {
                                OFFSET -0.218911 -0.128571 0.283837
                                CHANNELS 3 Zrotation Yrotation Xrotation
                                JOINT RightHandThumb2
                                {
                                    OFFSET -0.137157 -0.025101 0.077902
                                    CHANNELS 3 Zrotation Yrotation Xrotation
                                    JOINT RightHandThumb3
                                    {
                                        OFFSET -0.147392 -0.083040 0.070137
                                        CHANNELS 3 Zrotation Yrotation Xrotation
                                        End Site
                                        {
                                            OFFSET -0.146240 -0.213510 0.069743
                                        }
                                    }
                                }
                            }
                            JOINT RightHandFore1
                            {
                                OFFSET -0.767344 -0.015991 0.196679
                                CHANNELS 3 Zrotation Yrotation Xrotation
                                JOINT RightHandFore2
                                {
                                    OFFSET -0.214791 0.027820 0.009359
                                    CHANNELS 3 Zrotation Yrotation Xrotation
                                    JOINT RightHandFore3
                                    {
                                        OFFSET -0.127023 -0.024725 0.004006
                                        CHANNELS 3 Zrotation Yrotation Xrotation
                                        End Site
                                        {
                                            OFFSET -0.188856 -0.040025 0.009908
                                        }
                                    }
                                }
                            }
                            JOINT RightHandMiddle1
                            {
                                OFFSET -0.709887 -0.008302 0.018525
                                CHANNELS 3 Zrotation Yrotation Xrotation
                                JOINT RightHandMiddle2
                                {
                                    OFFSET -0.236251 -0.064735 0.007516
                                    CHANNELS 3 Zrotation Yrotation Xrotation
                                    JOINT RightHandMiddle3
                                    {
                                        OFFSET -0.103525 -0.103268 0.001698
                                        CHANNELS 3 Zrotation Yrotation Xrotation
                                        End Site
                                        {
                                            OFFSET -0.130548 -0.196437 0.000100
                                        }
                                    }
                                }
                            }
                            JOINT RightHandRing1
                            {
                                OFFSET -0.743819 -0.005785 -0.153669
                                CHANNELS 3 Zrotation Yrotation Xrotation
                                JOINT RightHandRing2
                                {
                                    OFFSET -0.339001 -0.098635 -0.009099
                                    CHANNELS 3 Zrotation Yrotation Xrotation
                                    JOINT RightHandRing3
                                    {
                                        OFFSET 0.019751 -0.134677 -0.008781
                                        CHANNELS 3 Zrotation Yrotation Xrotation
                                        End Site
                                        {
                                            OFFSET 0.088734 -0.080850 -0.003143
                                        }
                                    }
                                }
                            }
                            JOINT RightHandLittle1
                            {
                                OFFSET -0.689403 -0.053298 -0.308303
                                CHANNELS 3 Zrotation Yrotation Xrotation
                                JOINT RightHandLittle2
                                {
                                    OFFSET -0.193254 -0.018752 -0.018875
                                    CHANNELS 3 Zrotation Yrotation Xrotation
                                    JOINT RightHandLittle3
                                    {
                                        OFFSET -0.002808 -0.119950 0.009980
                                        CHANNELS 3 Zrotation Yrotation Xrotation
                                        End Site
                                        {
                                            OFFSET 0.181339 0.041558 0.040958
                                        }
                                    }
                                }
                            }
                        }
                    }
                }
            }
        }
    }
    JOINT LeftHip
    {
        OFFSET 0.685143 0.673822 -0.044491
        CHANNELS 3 Zrotation Yrotation Xrotation
        JOINT LeftKnee
        {
            OFFSET 0.085364 -3.750208 0.017676
            CHANNELS 3 Zrotation Yrotation Xrotation
            JOINT LeftAnkle
            {
                OFFSET 0.094583 -4.155206 0.019585
                CHANNELS 3 Zrotation Yrotation Xrotation
                JOINT LeftToe
                {
                    OFFSET -0.000000 -0.395925 0.621478
                    CHANNELS 3 Zrotation Yrotation Xrotation
                    End Site
                    {
                        OFFSET -0.000000 -0.077878 0.321152
                    }
                }
            }
        }
    }
    JOINT RightHip
    {
        OFFSET -0.685143 0.673822 -0.044492
        CHANNELS 3 Zrotation Yrotation Xrotation
        JOINT RightKnee
        {
            OFFSET -0.085364 -3.750208 0.017677
            CHANNELS 3 Zrotation Yrotation Xrotation
            JOINT RightAnkle
            {
                OFFSET -0.094583 -4.155206 0.019585
                CHANNELS 3 Zrotation Yrotation Xrotation
                JOINT RightToe
                {
                    OFFSET -0.000000 -0.395925 0.621478
                    CHANNELS 3 Zrotation Yrotation Xrotation
                    End Site
                    {
                        OFFSET -0.000000 -0.077878 0.321152
                    }
                }
            }
        }
    }
}
MOTION
Frames: 6
Frame Time: 0.033333
-1.637701 8.675861 -3.647750 -161.095734 -0.000013 180.000000 4.614094 0.842822 -3.388232 2.724668 -0.339574 -3.491217 22.715050 -1.364974 9.414449 0.184722 -3.583169 19.805639 3.375938 -4.546930 0.012186 -7.758654 -36.533527 -33.861801 178.409210 -43.318169 -179.375580 19.395517 -8.140876 -22.908106 -0.000008 -0.000000 -0.000016 -11.599508 -2.333754 4.599985 7.571884 -34.881313 -8.496518 -85.373894 -1.982673 1.229117 -69.434273 -0.955595 2.007210 -102.556458 0.752928 4.319352 -65.239929 -0.877480 1.855054 -62.364281 -1.235452 1.758719 -80.738701 -1.196731 2.259027 -67.838501 1.195302 4.807026 -6.959318 -0.119199 -0.087085 -63.217281 -3.501463 0.364891 -68.580009 3.650326 8.570249 -10.927010 0.013260 0.337970 15.105380 -0.495472 0.183609 8.473553 -1.692603 0.082106 32.605389 -34.467377 4.882660 -0.536773 56.411385 -1.008127 22.442278 -0.499267 2.250793 -0.000011 0.000007 -0.000015 -6.059848 -11.068788 0.914252 -28.665789 6.683182 -22.929045 13.744789 0.406709 -0.038697 -16.568363 0.473471 -1.237068 -2.287014 0.094841 -0.116256 -8.589493 -0.251027 -0.127156 -29.762003 0.125539 -1.420434 -10.301250 0.112411 -0.495223 -7.996273 -0.260643 -0.561265 -80.165825 3.500655 -0.551754 -35.988846 2.887905 -0.193787 -0.000012 0.000002 -0.000001 -75.030045 11.044859 10.614284 -109.510590 13.883920 10.679107 21.526430 1.176442 -23.364521 0.234147 0.745549 34.868164 2.364936 3.091549 -0.372938 0.078130 0.509428 -4.911142 26.662552 6.038723 -2.364313 -0.069687 -0.420635 18.815878 -1.504234 -6.039064 -15.846790 0.000001 0.000003 0.000000
-1.459057 8.729007 -3.647794 -156.841202 -0.000013 180.000000 7.885468 1.069312 -3.386903 3.459088 -0.429494 -3.509837 24.331093 -1.208245 10.307078 0.182537 -3.540964 21.444084 2.943750 -4.131749 0.016331 -11.679539 -42.388111 -28.650352 178.450516 -40.366131 -179.437729 19.032454 -13.000782 -24.054371 -0.000002 0.000009 -0.000013 -11.599504 -2.333756 4.599984 7.571888 -34.881306 -8.496519 -87.066078 -2.007072 1.235340 -71.467438 -0.948297 2.011822 -105.033752 0.815928 4.325086 -66.984161 -0.882480 1.883143 -64.541466 -1.240300 1.788301 -82.889381 -1.168120 2.283706 -69.630417 1.239614 4.913311 -9.016418 -0.141301 -0.163874 -65.566116 -3.573354 0.411362 -70.199760 3.755021 8.753933 -13.015262 -0.168129 0.296428 12.827139 -0.313278 0.112925 8.169251 -1.140797 0.097268 30.650208 -33.332935 6.155658 -0.570420 57.438858 -1.048383 21.193420 0.162053 1.176600 -0.000002 0.000002 -0.000010 -6.059850 -11.068792 0.914251 -28.665792 6.683183 -22.929043 13.744791 0.406698 -0.038707 -16.568373 0.473471 -1.237072 -2.287009 0.094841 -0.116256 -8.589499 -0.251036 -0.127158 -29.761990 0.125537 -1.420437 -10.301257 0.112410 -0.495226 -7.996283 -0.260648 -0.561267 -80.165825 3.500657 -0.551758 -35.988842 2.887903 -0.193794 -0.000013 -0.000003 -0.000005 -75.030052 11.044859 10.614283 -109.510574 13.883922 10.679105 26.224352 1.168228 -25.894688 0.274607 0.800487 37.866341 1.936995 2.802787 4.300325 0.084596 0.886832 -8.181327 31.391424 6.287527 0.096892 -0.039322 -0.317865 14.106629 -2.429685 -6.323116 -11.280369 0.000000 0.000003 -0.000004
-1.287390 8.784060 -3.647924 -153.077118 -0.000013 180.000000 10.636811 1.217435 -3.378261 3.941138 -0.488349 -3.516680 25.426828 -1.117068 10.917757 0.182120 -3.532902 22.565111 2.459818 -4.051475 0.014707 -20.689013 -47.478962 -18.765085 178.460327 -39.593231 -179.453094 18.824446 -17.416243 -24.979959 0.000011 0.000009 -0.000004 -11.599507 -2.333756 4.599981 7.571887 -34.881306 -8.496520 -87.658867 -2.015595 1.237214 -72.179680 -0.945589 2.012717 -105.901627 0.837772 4.325814 -67.595177 -0.884107 1.892693 -65.304146 -1.241611 1.798213 -83.642807 -1.157644 2.291651 -70.258163 1.255262 4.950216 -9.737043 -0.149480 -0.190949 -66.388985 -3.597617 0.428052 -70.767212 3.791810 8.818026 -13.746740 -0.233368 0.282157 12.029075 -0.248594 0.086191 7.934156 -0.605053 0.105352 29.326626 -32.960232 7.340532 -0.677904 60.312176 -1.174080 20.085958 0.409480 0.037599 -0.000001 -0.000005 -0.000005 -6.059844 -11.068792 0.914254 -28.665792 6.683180 -22.929049 13.744793 0.406695 -0.038706 -16.568371 0.473466 -1.237070 -2.287014 0.094837 -0.116253 -8.589487 -0.251043 -0.127159 -29.761999 0.125544 -1.420436 -10.301252 0.112403 -0.495226 -7.996279 -0.260649 -0.561267 -80.165825 3.500654 -0.551758 -35.988846 2.887905 -0.193792 -0.000006 -0.000005 0.000000 -75.030052 11.044860 10.614285 -109.510582 13.883919 10.679103 29.505232 1.157109 -28.144602 0.312921 0.847460 40.530048 2.397504 2.693584 9.003856 0.055310 1.262383 -11.121631 35.649052 6.368166 1.306506 -0.027614 -0.266980 11.812470 -3.335023 -6.362437 -7.681365 0.000001 0.000001 0.000001
-1.141951 8.834559 -3.648136 -150.065033 -0.000013 -180.000000 12.791425 1.316717 -3.365805 4.265661 -0.528119 -3.515685 25.815144 -1.175081 11.113726 0.194049 -3.763579 22.915726 1.957856 -4.034435 0.010194 -31.484205 -49.781292 -6.997645 178.462646 -39.405998 -179.456772 18.741802 -21.021479 -25.626829 -0.000009 -0.000000 -0.000008 -11.599507 -2.333753 4.599983 7.571889 -34.881306 -8.496522 -87.658875 -2.015588 1.237216 -72.179680 -0.945587 2.012720 -105.901627 0.837775 4.325812 -67.595200 -0.884104 1.892694 -65.304146 -1.241607 1.798211 -83.642807 -1.157640 2.291652 -70.258171 1.255264 4.950234 -9.737042 -0.149472 -0.190947 -66.388985 -3.597618 0.428055 -70.767220 3.791809 8.818027 -13.746742 -0.233371 0.282150 12.029078 -0.248591 0.086194 7.715329 -0.086763 0.108981 28.374830 -33.229870 8.388772 -0.894085 64.734657 -1.417893 18.679834 0.178866 -1.215493 -0.000001 0.000014 -0.000015 -6.059848 -11.068794 0.914252 -28.665792 6.683184 -22.929047 13.744787 0.406704 -0.038703 -16.568371 0.473467 -1.237072 -2.287010 0.094844 -0.116251 -8.589487 -0.251038 -0.127162 -29.761997 0.125537 -1.420432 -10.301253 0.112410 -0.495221 -7.996280 -0.260641 -0.561269 -80.165825 3.500654 -0.551759 -35.988838 2.887907 -0.193788 -0.000011 -0.000002 -0.000003 -75.030052 11.044861 10.614282 -109.510574 13.883915 10.679109 31.564671 1.146613 -29.916126 0.344180 0.882705 42.600128 3.297819 2.680288 13.157765 0.010871 1.566244 -13.232907 39.124111 6.359303 -0.234866 -0.043328 -0.333402 14.811525 -3.986875 -6.309848 -6.842905 -0.000000 -0.000001 0.000003
-1.041180 8.873423 -3.648425 -148.065857 -0.000013 -180.000000 14.270828 1.395705 -3.353701 4.524614 -0.559865 -3.513377 25.308876 -1.602687 10.979175 0.243409 -4.717083 22.662708 1.453101 -4.040037 0.004243 -41.125568 -49.110710 3.724815 178.461807 -39.475487 -179.455414 18.734081 -23.451033 -25.927143 0.000005 0.000009 -0.000005 -11.599507 -2.333750 4.599981 7.571881 -34.881313 -8.496519 -87.658875 -2.015598 1.237223 -72.179680 -0.945589 2.012715 -105.901627 0.837775 4.325811 -67.595177 -0.884111 1.892692 -65.304146 -1.241602 1.798209 -83.642807 -1.157634 2.291652 -70.258156 1.255257 4.950225 -9.737046 -0.149475 -0.190944 -66.388985 -3.597620 0.428048 -70.767212 3.791803 8.818026 -13.746741 -0.233372 0.282150 12.029074 -0.248591 0.086194 7.471892 0.405073 0.110272 27.518612 -33.592896 9.172485 -1.228391 69.410995 -1.780907 16.758850 -0.465923 -2.590222 -0.000001 0.000009 -0.000012 -6.059849 -11.068790 0.914254 -28.665792 6.683180 -22.929045 13.744798 0.406712 -0.038703 -16.568373 0.473469 -1.237072 -2.287008 0.094841 -0.116255 -8.589483 -0.251034 -0.127166 -29.761997 0.125544 -1.420435 -10.301251 0.112401 -0.495225 -7.996272 -0.260639 -0.561272 -80.165833 3.500657 -0.551749 -35.988842 2.887905 -0.193792 -0.000006 0.000005 -0.000005 -75.030045 11.044860 10.614286 -109.510582 13.883918 10.679110 32.624615 1.139044 -31.064592 0.364800 0.904613 43.922153 4.165028 2.657353 16.131853 -0.020323 1.738271 -14.300578 41.464260 6.274899 -1.995042 -0.065508 -0.408164 18.238091 -4.545284 -6.173437 -6.822585 0.000000 0.000003 -0.000006
-1.003423 8.893928 -3.648787 -147.341415 -0.000013 -180.000000 14.996531 1.482929 -3.346315 4.810193 -0.594347 -3.517547 24.097574 -1.957388 10.841901 0.286409 -5.545593 22.415941 0.965650 -4.026538 -0.002152 -47.949230 -46.315495 11.472123 178.461960 -39.462765 -179.455673 18.747889 -24.340700 -25.800110 0.000003 0.000003 -0.000009 -11.599509 -2.333751 4.599976 7.571887 -34.881310 -8.496516 -87.658875 -2.015597 1.237221 -72.179680 -0.945587 2.012720 -105.901627 0.837773 4.325809 -67.595192 -0.884114 1.892689 -65.304146 -1.241607 1.798208 -83.642807 -1.157639 2.291643 -70.258171 1.255247 4.950227 -9.737045 -0.149475 -0.190946 -66.388985 -3.597615 0.428052 -70.767212 3.791804 8.818019 -13.746746 -0.233373 0.282154 12.029076 -0.248589 0.086191 7.167265 0.859490 0.110987 26.594839 -33.964645 9.574138 -1.739221 73.910530 -2.318938 14.712979 -1.451879 -4.004627 0.000004 0.000010 -0.000009 -6.059845 -11.068790 0.914252 -28.665796 6.683184 -22.929050 13.744804 0.406704 -0.038707 -16.568373 0.473472 -1.237071 -2.287014 0.094839 -0.116258 -8.589488 -0.251031 -0.127159 -29.761997 0.125537 -1.420436 -10.301250 0.112411 -0.495225 -7.996265 -0.260648 -0.561262 -80.165833 3.500654 -0.551751 -35.988846 2.887905 -0.193794 0.000005 -0.000002 0.000003 -75.030052 11.044865 10.614283 -109.510582 13.883922 10.679109 32.924809 1.135439 -31.507759 0.373219 0.913273 44.452824 4.507999 2.509752 17.240761 -0.020425 1.731464 -14.306537 42.302349 6.092662 -2.540506 -0.073384 -0.431333 19.313242 -5.050420 -5.850098 -6.680761 0.000000 0.000003 0.000003
